<svg id="Vrstva_1" data-name="Vrstva 1" xmlns="http://www.w3.org/2000/svg" viewBox="0 0 611.78 137.43"><defs><style>.cls-1{fill:#333;}.cls-2{fill:#ccc;}</style></defs><title>line</title><path class="cls-1" d="M377,125.16c25.11-20.17,60.55-12.84,88.91-5.79,33.41,8.3,68.15,10.94,102.51,9.54q13.69-.57,27.32-2.23c8.81-1.07,18.65-1.72,26.77-5.55,1-.48,1.24-2.4-.2-2.5-8.22-.58-16.76,1.39-24.92,2.24q-13.47,1.39-27,1.77a303,303,0,0,1-51.78-3c-17.53-2.54-34.61-6.92-51.77-11.2-16.12-4-32.61-8-49.36-7-16.92,1.09-32.52,7.73-42.86,21.51-1.13,1.5,1,3.28,2.39,2.16Z" transform="translate(-11.59 -7.02)"/><path class="cls-1" d="M338.49,144.3c6.91-2.55,13-10.53,16.85-16.59A58,58,0,0,0,364,103,47.46,47.46,0,0,0,361,79.27c-3.89-9.59-11.43-18.82-11.27-29.67a.78.78,0,0,0-1.56-.13c-1.61,7.87-.24,14.61,1.69,22.3,2.2,8.73,4,17.5,3.91,26.54a66.44,66.44,0,0,1-6.47,27.51c-2.86,6.06-7.48,10.47-10.81,16.11a1.62,1.62,0,0,0,2,2.37Z" transform="translate(-11.59 -7.02)"/><path class="cls-2" d="M339.36,91.32A137.51,137.51,0,0,1,338.77,50a91.36,91.36,0,0,1,4.87-18.8c1-2.62,2-5.21,3-7.79,1.67-4.08,4.59-9.39,4.85-13.77a2.37,2.37,0,0,0-3.29-2.38C342.36,9.37,337.93,16.73,335.1,22A70.56,70.56,0,0,0,328,43.48c-2.92,17-.4,33.86,9.11,48.55.6.94,2.42.54,2.22-.71Z" transform="translate(-11.59 -7.02)"/><path class="cls-2" d="M318.45,139c1.33-12.62,4-24.86,4.13-37.6.09-11.78-.56-24.76-4.06-36.09a1.12,1.12,0,0,0-2.15.05c-3.49,11.16-4.11,24.2-4,35.84.16,12.86,2.82,25.23,4.24,38,.12,1.1,1.72.82,1.82-.16Z" transform="translate(-11.59 -7.02)"/><path class="cls-1" d="M337.4,118.06a4.72,4.72,0,0,0,3.18-1.81,4.72,4.72,0,0,0-.87-6.61l-1-.6a4.69,4.69,0,0,0-5.56,1.47,4.78,4.78,0,0,0-.94,3.42,4.73,4.73,0,0,0,1.81,3.18c.34.21.69.41,1,.61a4.73,4.73,0,0,0,2.38.34Z" transform="translate(-11.59 -7.02)"/><path class="cls-2" d="M383.46,100.75A88.23,88.23,0,0,1,427.27,86.4c16.54-.84,32.83,2.71,48.69,7,16.33,4.44,32.28,10,48.95,13.14,17.11,3.22,35.59,5.51,52.24-.73,1.09-.41,1-2.17-.31-2.13-18.4.56-36.19-1-53.94-6-17.46-5-34.69-11-52.4-15-15.85-3.61-32.11-5.52-48.29-3.08a86.46,86.46,0,0,0-20.66,5.6,48.28,48.28,0,0,0-19.1,14.1c-.59.69.08,2.08,1,1.47Z" transform="translate(-11.59 -7.02)"/><path class="cls-1" d="M260.23,122.86c-20.29-27-55.7-23.1-84.79-16.19-17.76,4.21-35.29,9.11-53.32,12.08a303.08,303.08,0,0,1-51.93,4Q55,122.61,40,121.13c-8.93-.88-18.21-3.1-27.19-2.52a1.31,1.31,0,0,0-.45,2.47c7,3.21,15,4,22.58,5q12,1.59,24,2.37a401.72,401.72,0,0,0,49.56-.09A316.27,316.27,0,0,0,157.79,122c15.9-3.47,31.48-8.18,47.77-9.63,17.83-1.58,38.21,1.37,52.51,12.9,1.5,1.2,3.21-1,2.16-2.4Z" transform="translate(-11.59 -7.02)"/><path class="cls-1" d="M298.62,142.17c-2.41-4.12-6-7.33-8.44-11.47a61,61,0,0,1-4.6-9.74,67.44,67.44,0,0,1-4.38-23.11c-.08-9.31,1.85-18.35,4.21-27.31,1.92-7.31,2.9-13.7,1.38-21.14-.17-.83-1.57-.85-1.55.07.14,10.06-6.36,18.87-10.33,27.61a47.51,47.51,0,0,0-4,25.46,59,59,0,0,0,7.69,23.54c4,6.72,10.45,15.42,18,18.28,1.21.45,2.69-1,2-2.19Z" transform="translate(-11.59 -7.02)"/><path class="cls-2" d="M297.9,91.92c9.12-13.83,11.87-30.36,9.39-46.56a71.86,71.86,0,0,0-6.6-21.85c-2.88-5.6-7.69-14-14.06-16.34a2.39,2.39,0,0,0-3.17,2.57c.21,3.19,2,6.31,3.09,9.32,1.26,3.49,2.84,6.89,4.15,10.37a99.69,99.69,0,0,1,5.42,20,130.79,130.79,0,0,1-.47,41.7,1.21,1.21,0,0,0,2.25.78Z" transform="translate(-11.59 -7.02)"/><path class="cls-1" d="M298.69,118.06a4.72,4.72,0,0,0,3.18-1.81,4.72,4.72,0,0,0-.87-6.61l-1-.6a4.69,4.69,0,0,0-5.56,1.47,4.78,4.78,0,0,0-.94,3.42,4.73,4.73,0,0,0,1.81,3.18c.34.21.69.41,1,.61a4.71,4.71,0,0,0,2.38.34Z" transform="translate(-11.59 -7.02)"/><path class="cls-2" d="M252.59,99.34c-4.87-5.6-9.43-9.66-16.2-12.85a83,83,0,0,0-21.28-6.55c-15.85-2.74-31.82-1.28-47.45,2C150.1,85.72,133,91.55,115.83,96.58a180.54,180.54,0,0,1-57.72,7.13c-1.33,0-1.32,1.73-.25,2.14,14.44,5.43,29.79,4.14,44.82,2,17.11-2.49,33.36-7.8,49.91-12.58,15.17-4.38,30.66-8.36,46.52-8.91,18.24-.64,37.08,4.13,52.34,14.38.85.58,1.8-.61,1.14-1.36Z" transform="translate(-11.59 -7.02)"/></svg>